{"title":"Broken City (2013) BDRip XviD-MeRCuRY","uid":8386839,"size":733340326,"categoryP":"video","categoryS":"movies","magnet":"?xt=urn:btih:bb29a2fd2a0ad4ec1085de88184f099a5bd93865&amp;dn=Broken+City+%282013%29+BDRip+XviD-MeRCuRY&amp;tr=udp%3A%2F%2Ftracker.openbittorrent.com%3A80&amp;tr=udp%3A%2F%2Fopen.demonii.com%3A1337&amp;tr=udp%3A%2F%2Ftracker.coppersurfer.tk%3A6969&amp;tr=udp%3A%2F%2Fexodus.desync.com%3A6969","seeders":1,"leechers":0,"uploader":"Gh0stNet","files":9,"time":1366307125,"description":"General\nComplete name: C:\\Users\\Administrator\\Desktop\\Beyaz\\Rip\\Broken City 2013 1080p CAN Blu-ray AVC DTS-HD MA 5.1-EbP\\Broken City (2013) BDRip XviD-MeRCuRY.avi\nFormat: AVI\nFormat/Info: Audio Video Interleave\nFile size: 699 MiB\nDuration: 1h 48mn\nOverall bit rate: 899 Kbps\n\nVideo\nID: 0\nFormat: MPEG-4 Visual\nFormat profile: Advanced Simple@L5\nFormat settings, BVOP: 2\nFormat settings, QPel: No\nFormat settings, GMC: No warppoints\nFormat settings, Matrix: Default (H.263)\nCodec ID: XVID\nCodec ID/Hint: XviD\nDuration: 1h 48mn\nBit rate: 765 Kbps\nWidth: 640 pixels\nHeight: 272 pixels\nDisplay aspect ratio: 2.35:1\nFrame rate: 23.976 fps\nColor space: YUV\nChroma subsampling: 4:2:0\nBit depth: 8 bits\nScan type: Progressive\nCompression mode: Lossy\nBits/(Pixel*Frame): 0.183\nStream size: 594 MiB (85%)\nWriting library: XviD 1.2.1 (UTC 2008-12-04)\n\nAudio\nID: 1\nFormat: MPEG Audio\nFormat version: Version 1\nFormat profile: Layer 3\nMode: Joint stereo\nMode extension: MS Stereo\nCodec ID: 55\nCodec ID/Hint: MP3\nDuration: 1h 48mn\nBit rate mode: Constant\nBit rate: 128 Kbps\nChannel(s): 2 channels\nSampling rate: 48.0 KHz\nCompression mode: Lossy\nStream size: 99.5 MiB (14%)\nAlignment: Aligned on interleaves\nInterleave, duration: 167 ms (4.00 video frames)\nInterleave, preload duration: 216 ms\nTitle: F1_T3_Audio - English\nWriting library: LAME3.99r\nEncoding settings: -m j -V 4 -q 2 -lowpass 17 -b 128\n","torrent":{"xt":"urn:btih:bb29a2fd2a0ad4ec1085de88184f099a5bd93865","amp;dn":"Broken+City+%282013%29+BDRip+XviD-MeRCuRY","amp;tr":["udp%3A%2F%2Ftracker.openbittorrent.com%3A80","udp%3A%2F%2Fopen.demonii.com%3A1337","udp%3A%2F%2Ftracker.coppersurfer.tk%3A6969","udp%3A%2F%2Fexodus.desync.com%3A6969"],"infoHash":"bb29a2fd2a0ad4ec1085de88184f099a5bd93865","infoHashBuffer":{"type":"Buffer","data":[187,41,162,253,42,10,212,236,16,133,222,136,24,79,9,154,91,217,56,101]},"announce":[],"urlList":[]}}